HIERARCHY
ROOT Hips
{
 OFFSET 0.000000 0.000000 0.000000
 CHANNELS 6 Xposition Yposition Zposition Yrotation Xrotation Zrotation
 JOINT Chest
 {
  OFFSET 0.000000 12.953391 -0.028419
  CHANNELS 3 Yrotation Xrotation Zrotation
  JOINT Chest2
  {
   OFFSET 0.000000 10.280254 0.051622
   CHANNELS 3 Yrotation Xrotation Zrotation
   JOINT Chest3
   {
    OFFSET 0.000000 9.287180 0.000000
    CHANNELS 3 Yrotation Xrotation Zrotation
    JOINT Chest4
    {
     OFFSET 0.000000 9.287180 0.000000
     CHANNELS 3 Yrotation Xrotation Zrotation
     JOINT Neck
     {
      OFFSET 0.000000 13.296264 0.000000
      CHANNELS 3 Yrotation Xrotation Zrotation
      JOINT Head
      {
       OFFSET 0.000000 8.959264 0.099003
       CHANNELS 3 Yrotation Xrotation Zrotation
       End Site
       {
        OFFSET 0.000000 17.121337 0.039303
       }
      }
     }
     JOINT RightCollar
     {
      OFFSET -3.193511 7.451388 0.000000
      CHANNELS 3 Yrotation Xrotation Zrotation
      JOINT RightShoulder
      {
       OFFSET -15.792092 0.000000 0.000000
       CHANNELS 3 Yrotation Xrotation Zrotation
       JOINT RightElbow
       {
        OFFSET -31.151839 0.000000 0.000000
        CHANNELS 3 Yrotation Xrotation Zrotation
        JOINT RightWrist
        {
         OFFSET -25.536298 0.000000 0.002321
         CHANNELS 3 Yrotation Xrotation Zrotation
         End Site
         {
          OFFSET -19.133213 0.000000 0.000000
         }
        }
       }
      }
     }
     JOINT LeftCollar
     {
      OFFSET 3.193511 7.451388 0.000000
      CHANNELS 3 Yrotation Xrotation Zrotation
      JOINT LeftShoulder
      {
       OFFSET 15.792092 0.000000 0.000000
       CHANNELS 3 Yrotation Xrotation Zrotation
       JOINT LeftElbow
       {
        OFFSET 31.151839 0.000000 0.000000
        CHANNELS 3 Yrotation Xrotation Zrotation
        JOINT LeftWrist
        {
         OFFSET 25.536298 0.000000 0.002321
         CHANNELS 3 Yrotation Xrotation Zrotation
         End Site
         {
          OFFSET 19.133213 0.000000 0.000000
         }
        }
       }
      }
     }
    }
   }
  }
 }
 JOINT RightHip
 {
  OFFSET -10.745749 0.139252 0.014209
  CHANNELS 3 Yrotation Xrotation Zrotation
  JOINT RightKnee
  {
   OFFSET 0.000000 -43.743899 -0.006071
   CHANNELS 3 Yrotation Xrotation Zrotation
   JOINT RightAnkle
   {
    OFFSET 0.000000 -43.214199 0.089931
    CHANNELS 3 Yrotation Xrotation Zrotation
    JOINT RightToe
    {
     OFFSET 0.000000 -9.699830 19.151588
     CHANNELS 3 Yrotation Xrotation Zrotation
     End Site
     {
      OFFSET 0.000000 -1.292898 4.893873
     }
    }
   }
  }
 }
 JOINT LeftHip
 {
  OFFSET 10.745749 0.139252 0.014209
  CHANNELS 3 Yrotation Xrotation Zrotation
  JOINT LeftKnee
  {
   OFFSET 0.000000 -43.743899 -0.006071
   CHANNELS 3 Yrotation Xrotation Zrotation
   JOINT LeftAnkle
   {
    OFFSET 0.000000 -43.214199 0.089931
    CHANNELS 3 Yrotation Xrotation Zrotation
    JOINT LeftToe
    {
     OFFSET 0.000000 -9.699830 19.151588
     CHANNELS 3 Yrotation Xrotation Zrotation
     End Site
     {
      OFFSET 0.000000 -1.292898 4.893873
     }
    }
   }
  }
 }
}
MOTION
Frames: 16
Frame Time: 0.016667
-12.127712 96.441529 -107.344078 -0.725625 -3.906363 0.046015 -0.693344 6.149165 0.727521 -0.317481 2.731822 0.332048 -0.317553 2.731770 0.332045 -0.239647 2.048614 0.250408 -3.027922 17.719956 0.633473 -5.796303 -3.190645 2.190559 6.933572 6.785841 11.519020 -2.409453 -1.617570 74.725714 -6.294256 4.839222 -5.786954 20.538920 -14.363661 -14.411248 -3.618593 4.823314 -12.972862 -15.901769 -1.937562 -71.686316 -16.996857 -4.377347 2.107379 7.622519 -8.666191 20.210313 5.292397 -13.542956 -14.389053 -5.220845 19.035396 -2.595617 -15.070404 -6.529434 -3.212572 0.000000 0.000000 0.000000 3.876291 2.351133 9.834458 -4.952650 10.474308 -0.014565 -5.303859 -11.413582 -9.235459 0.000000 0.000000 0.000000
-13.555058 96.196424 -106.475727 0.668814 -4.181472 0.117380 -0.876203 6.254038 0.698503 -0.398252 2.778251 0.321794 -0.398252 2.778251 0.321794 -0.300095 2.083481 0.243110 -3.267100 17.602047 0.702601 -6.265932 -3.393328 2.404817 6.674817 7.040247 11.113132 -7.157601 0.030087 76.509621 -2.209639 3.362078 -5.660942 21.126798 -15.086898 -15.012507 -3.197366 3.991276 -12.816467 -14.884835 -2.631117 -71.114895 -22.724331 -1.294556 3.213771 7.622009 -8.946248 20.587774 5.946895 -11.737510 -15.133155 -7.075960 16.451137 -2.765331 -15.916631 -5.566244 -3.742347 0.000000 0.000000 0.000000 2.405658 3.072226 10.614442 -4.808557 10.324169 -0.049330 -5.220595 -11.700288 -9.686427 0.000000 0.000000 0.000000
-15.121892 95.961471 -105.465531 1.586535 -4.536779 -0.048850 -1.239217 6.144465 0.553428 -0.557221 2.729444 0.262032 -0.557203 2.729515 0.262030 -0.418992 2.046963 0.198974 -3.126987 17.916987 0.870342 -6.050506 -2.806159 2.650106 6.254051 6.479439 10.919839 -9.416562 2.266329 76.839886 -0.674775 5.867414 -4.638468 21.078007 -14.012662 -14.742622 -3.138880 4.456267 -12.742304 -12.935582 -3.474782 -70.322454 -29.694333 1.382590 4.015655 7.896579 -9.057497 21.152933 5.141155 -10.607886 -15.093893 -7.765223 15.166696 -2.518182 -16.336054 -4.916831 -2.365852 0.000000 -0.000000 -0.000000 1.412629 4.010114 11.712270 -4.721078 10.216193 -0.025231 -5.080912 -12.197748 -10.056208 0.000000 -0.000000 0.000000
-16.810574 95.730455 -104.387721 2.187998 -4.912155 -0.345775 -1.684476 5.917421 0.320384 -0.751684 2.628837 0.163700 -0.751684 2.628902 0.163698 -0.564377 1.971538 0.125986 -2.754513 18.449614 1.111682 -5.422983 -1.823095 2.943664 5.715608 5.495570 10.839533 -10.676876 4.796056 76.409616 0.348910 10.509746 -3.123128 20.745399 -12.067111 -14.238633 -3.256975 5.581085 -12.690135 -10.393258 -4.345229 -69.535475 -37.512221 3.919708 4.513160 8.349711 -9.009226 21.778385 3.423325 -9.963410 -14.573288 -7.760786 14.785460 -2.015614 -16.347505 -4.292994 0.171407 0.000000 0.000000 0.000000 0.759163 4.971569 12.997205 -4.647652 10.270688 0.031063 -4.879137 -12.778341 -10.350407 0.000000 0.000000 0.000000
-18.565970 95.513201 -103.373710 2.501711 -5.181780 -0.614472 -1.989571 5.700370 0.112219 -0.884507 2.533002 0.074278 -0.884507 2.533002 0.074278 -0.663580 1.899648 0.059368 -2.431520 18.874216 1.295853 -4.873397 -1.040919 3.156729 5.277350 4.693883 10.867018 -11.307679 6.787760 76.080222 0.836596 14.169989 -1.971952 20.493487 -10.860147 -14.049949 -3.342730 6.320412 -12.602875 -8.661478 -4.751059 -68.916676 -44.810190 5.776839 5.035670 8.862511 -8.864891 22.174391 1.496226 -9.732404 -13.835011 -7.371435 14.775171 -1.599664 -16.044764 -3.361299 2.487922 0.000000 0.000000 0.000000 0.590699 5.489506 14.251934 -4.603848 10.841495 0.057112 -4.586745 -13.132313 -10.399415 0.000000 0.000000 0.000000
-20.413421 95.281407 -102.474697 2.520954 -5.266743 -0.758123 -2.048907 5.512567 -0.061167 -0.908840 2.450307 -0.002798 -0.908850 2.450304 -0.002807 -0.681525 1.837729 0.001534 -2.285781 19.090115 1.378512 -4.624319 -0.642802 3.251901 5.048497 4.302760 11.034566 -11.120881 7.972216 76.345672 0.313500 15.524298 -1.647743 20.536767 -11.321779 -14.532490 -3.343921 6.105303 -12.388048 -8.664257 -4.106050 -68.468784 -51.042499 6.778756 6.431661 9.447003 -8.675592 22.157545 -0.740492 -10.060708 -12.883089 -6.528083 15.013675 -1.464684 -15.322221 -1.652019 4.315125 0.000000 0.000000 0.000000 1.049772 5.382019 15.523800 -4.694167 12.005531 -0.120313 -4.289975 -13.361093 -10.179470 -0.017700 0.603689 0.530513
-22.327587 95.063375 -101.639483 2.250128 -5.249614 -0.869512 -1.969246 5.331693 -0.205707 -0.871912 2.370539 -0.068688 -0.871927 2.370551 -0.068698 -0.653593 1.778018 -0.048141 -2.194694 19.200474 1.399530 -4.459819 -0.441215 3.256768 4.925680 4.090069 11.300250 -10.303570 8.621496 76.862475 -0.893419 15.902416 -1.748538 20.705060 -12.526000 -15.319513 -3.333051 5.503582 -12.123992 -9.459156 -2.937932 -68.187195 -56.590917 7.557347 8.421390 10.085289 -8.491499 21.901098 -3.219585 -10.757410 -11.650324 -5.313201 15.628789 -1.439319 -14.273123 0.346800 5.907261 0.000000 -0.000000 0.000000 1.963063 4.810677 16.761414 -4.846344 13.685011 -0.310230 -3.898116 -13.371324 -9.722064 -0.031721 1.195041 1.074759
-24.177316 94.953836 -100.845876 1.732709 -5.249104 -1.073759 -1.848362 5.221780 -0.230948 -0.818015 2.321696 -0.081715 -0.818015 2.321696 -0.081715 -0.613116 1.741385 -0.058169 -2.072711 19.188579 1.349808 -4.221588 -0.471541 3.127791 4.826219 3.963447 11.527860 -9.788067 8.779745 77.235276 -1.882122 16.202822 -1.924410 20.766259 -13.275801 -15.906146 -3.292051 5.171104 -11.974054 -9.655174 -2.387371 -68.078630 -61.527032 8.559642 9.685782 10.625036 -8.410264 21.689290 -4.975854 -11.300876 -10.314569 -4.262836 16.449428 -1.295191 -13.420694 1.468197 6.692896 0.000000 0.000000 0.000000 2.984814 3.828588 17.603682 -4.782516 15.998549 -0.012656 -3.120246 -12.565886 -8.932322 0.000000 -0.000000 0.000000
-25.939268 95.012019 -100.090294 0.863745 -5.348491 -1.494020 -1.690153 5.248804 -0.048437 -0.749759 2.332880 -0.002356 -0.749727 2.332844 -0.002350 -0.562191 1.749622 0.001105 -1.884296 18.992352 1.193836 -3.834529 -0.851094 2.790109 4.691213 3.878420 11.693886 -10.099944 8.270615 77.275312 -2.511849 16.931785 -2.222135 20.550364 -12.933115 -16.054518 -3.156239 5.407367 -12.058648 -8.436354 -3.196374 -68.125825 -65.948390 9.662427 9.334286 11.002264 -8.448842 21.626495 -5.192907 -11.554370 -8.930031 -3.776969 17.672990 -0.859336 -13.059105 0.945639 6.185486 -0.000000 0.000000 -0.000000 4.147074 2.408200 17.925920 -4.293129 19.137890 1.271868 -1.879295 -10.420553 -7.870679 0.334674 -5.155261 -5.068932
-27.636783 95.178695 -99.376319 -0.250927 -5.473892 -2.004808 -1.489848 5.350414 0.251532 -0.664251 2.377062 0.128869 -0.664218 2.377027 0.128871 -0.498575 1.782618 0.099224 -1.662918 18.673652 0.969407 -3.366401 -1.459901 2.318622 4.584074 3.878539 11.822033 -10.703817 7.269841 77.180277 -2.924027 17.591062 -2.607190 20.209407 -12.125338 -16.018839 -2.986218 5.910890 -12.263895 -6.615624 -4.623609 -68.367235 -69.878198 10.538638 8.135859 11.287554 -8.582147 21.642565 -4.675220 -11.713135 -7.473725 -3.451522 19.092495 -0.287520 -12.920070 -0.469113 4.886927 0.000000 0.000000 -0.000000 5.413961 0.578996 17.856627 -3.408948 22.864035 3.181556 -0.193753 -7.501523 -6.396504 1.340582 -11.594937 -12.318677
-29.208736 95.370897 -98.692511 -1.252958 -5.499612 -2.361323 -1.333854 5.396513 0.493032 -0.597886 2.397028 0.234401 -0.597886 2.397028 0.234401 -0.449269 1.797544 0.178122 -1.428392 18.401893 0.776048 -2.879529 -1.978196 1.895298 4.604141 4.003255 11.846066 -10.958120 6.377457 77.079685 -2.638880 17.601875 -2.633757 19.948672 -11.544791 -16.038304 -2.935520 6.436982 -12.399092 -5.250909 -5.586886 -68.729979 -73.343786 11.219717 7.164251 11.537009 -8.810441 21.769060 -4.853425 -11.742697 -6.066867 -2.602490 19.938000 0.158930 -12.741688 -1.675386 3.722238 0.000000 0.000000 0.000000 6.363652 -1.496619 17.428315 -2.242006 26.674191 4.888559 2.164670 -4.909028 -4.156252 2.078430 -14.292598 -16.464976
-30.618612 95.566355 -98.022889 -2.008011 -5.351400 -2.464880 -1.280688 5.320424 0.610713 -0.575608 2.362988 0.285824 -0.575629 2.363009 0.285826 -0.432780 1.772000 0.216569 -1.160945 18.239545 0.640448 -2.346749 -2.290542 1.562082 4.852814 4.329071 11.694585 -10.566117 5.907220 76.981381 -1.128000 16.266124 -1.943562 19.865291 -11.516531 -16.193381 -3.119789 7.028571 -12.347326 -5.019370 -5.562352 -69.219787 -76.635211 11.905802 7.248636 11.905499 -9.078427 22.158899 -6.783914 -11.540087 -4.670312 -0.492235 19.760171 0.350832 -12.408701 -2.263562 3.039078 0.000000 0.000000 0.000000 6.654017 -3.877700 16.609985 -0.622625 30.762635 6.075351 6.176954 -2.923255 -0.416318 1.283800 -10.597788 -13.211197
-31.902926 95.787339 -97.383434 -2.650858 -5.093122 -2.419531 -1.272549 5.186592 0.672632 -0.572532 2.303333 0.312866 -0.572549 2.303346 0.312867 -0.430545 1.727226 0.236779 -0.882267 18.125635 0.533941 -1.800992 -2.510493 1.276060 5.224705 4.778696 11.437230 -9.837811 5.551919 76.844939 1.017713 14.236548 -0.996475 19.864928 -11.708905 -16.407850 -3.421104 7.644643 -12.229498 -5.266950 -5.091328 -69.775207 -79.402749 12.660025 7.646956 12.236286 -9.433545 22.656472 -9.383084 -11.138672 -3.338684 2.143987 19.034322 0.378709 -12.054229 -2.645608 2.496592 0.000000 -0.000000 0.000000 6.691288 -6.504160 15.461428 1.360541 34.935735 7.155401 11.071977 -1.720931 3.982333 0.259613 -4.293052 -5.837146
-33.110103 96.017695 -96.810639 -3.228021 -4.797550 -2.287162 -1.223412 5.058027 0.704106 -0.550874 2.246151 0.325967 -0.550874 2.246151 0.325967 -0.414301 1.684322 0.246470 -0.678074 18.044428 0.469903 -1.405119 -2.665827 1.091434 5.510855 5.160025 11.219412 -9.058887 4.994635 76.689617 2.688678 13.010790 -0.440499 19.851584 -11.832838 -16.668179 -3.632929 7.913810 -12.193034 -5.044995 -4.672153 -70.131141 -80.748447 13.295615 7.113026 12.108496 -10.048968 22.834948 -10.878744 -10.733091 -2.323307 3.786681 18.371451 0.335587 -11.834459 -2.959832 1.990747 -0.000000 0.000000 -0.000000 7.179252 -9.007627 14.104051 2.958346 38.179571 8.145381 14.138658 -1.707134 6.972038 0.000000 0.000000 0.000000
-34.253451 96.257985 -96.345474 -3.694457 -4.463109 -2.074344 -1.105251 4.962075 0.698253 -0.498207 2.203708 0.321864 -0.498198 2.203711 0.321863 -0.374758 1.652525 0.243164 -0.598682 17.973325 0.492342 -1.267337 -2.798526 1.107197 5.559956 5.356351 11.116144 -8.334861 4.071676 76.527148 3.416754 13.567214 -0.465091 19.755550 -11.721992 -16.972544 -3.608577 7.519037 -12.289887 -3.660298 -4.363752 -70.160263 -80.844005 13.989700 4.818616 11.055841 -11.260100 22.292835 -10.181377 -10.477473 -1.787023 3.492880 17.983739 0.273172 -11.932496 -3.244158 1.501894 0.000000 -0.000000 -0.000000 8.563336 -11.312379 12.469761 3.783639 40.083359 9.006159 13.526631 -2.897559 7.753893 0.007072 0.912516 1.326582
-35.319662 96.507648 -95.946970 -4.093499 -4.089766 -1.774338 -0.946187 4.871311 0.659781 -0.427053 2.163697 0.302902 -0.427045 2.163705 0.302899 -0.321314 1.622572 0.228657 -0.594446 17.934109 0.556434 -1.281549 -2.870455 1.224380 5.526329 5.483656 11.054063 -7.555785 2.950207 76.334897 3.727793 14.974698 -0.749290 19.624798 -11.544422 -17.303866 -3.488400 6.777754 -12.460350 -1.793889 -4.101101 -69.959652 -79.588240 14.641288 1.624178 9.508473 -12.691982 21.440441 -8.396747 -10.292441 -1.560958 2.216994 17.612459 0.188148 -12.169302 -3.468257 1.053632 -0.000000 -0.000000 0.000000 10.439348 -13.427433 10.527665 3.966761 41.119794 9.493500 10.796784 -4.700444 7.292375 -0.000623 0.466613 0.656179
